<svg width="408" height="342" viewBox="0 0 408 342" fill="none" xmlns="http://www.w3.org/2000/svg">
<g clip-path="url(#clip0_17_2)">
<path d="M159.538 291.134L164.2 289.635L160.634 270.949L153.752 273.162L159.538 291.134Z" fill="#A0616A"/>
<path d="M163.672 286.866L163.667 286.868L158.779 288.766L158.774 288.767L157.643 289.208L160.164 300.071L160.298 300.653L163.612 299.59L163.535 298.992L163.194 296.274L165.26 298.439L165.708 298.912L174.49 296.093C175.012 295.926 175.424 295.566 175.667 295.111C175.934 294.634 176.007 294.05 175.823 293.487C175.636 291.639 167.133 290.244 165.886 289.554L164.871 286.396L163.672 286.866V286.866Z" fill="#2F2E41"/>
<path d="M150.98 226.228C151.736 226.852 152.268 227.706 152.492 228.661L153.493 232.932L164.053 278.493L152.495 282.836C145.05 267.987 140.602 258.681 140.351 248.24C140.28 245.347 140.535 242.363 141.134 239.15C141.134 239.15 133.608 244.27 124.664 250.129C123.878 250.643 123.081 251.166 122.272 251.687C114.853 256.516 106.855 261.58 101.521 264.547C98.276 266.353 95.1712 266.339 92.3858 265.235C84.4345 262.107 79.0162 250.171 80.0685 246.471L92.0804 228.605L106.94 236.009L108.494 236.781L134.484 221.538C138.276 219.314 143.054 219.695 146.446 222.491L150.98 226.228V226.228Z" fill="#2F2E41"/>
<path d="M393.935 137.95C397.605 131.203 399.987 124.587 400.839 118.485C397.437 118.088 394.427 118.365 391.8 119.246C396.324 111.712 399.344 102.434 395.413 97.6708C392.937 95.0451 389.737 93.0796 385.955 91.7741C387.178 86.117 387.193 80.8168 385.799 76.1572C379.33 54.4627 336.52 93.549 309.199 76.6314C297.745 69.5417 285.415 78.4748 275.43 92.84C276.799 97.617 279.329 102.057 282.881 105.543C278.355 105.22 273.903 103.89 269.94 101.68C259.254 120.842 252.796 144.83 256.03 155.674C258.129 162.71 263.154 167.438 270.204 169.873C268.981 175.53 295.41 216.14 300.279 216.098C313.225 215.985 317.251 186.599 325.895 224.258L306.64 341.756H334.528V220.581C342.288 208.607 350.303 216.616 368.777 207.296C425.439 178.713 401.283 147.209 393.935 137.95Z" fill="#3A6351"/>
<path d="M157.103 86.0056C161.708 77.5384 164.698 69.2368 165.766 61.5796C161.497 61.0807 157.721 61.4282 154.423 62.5345C160.101 53.0803 163.891 41.4371 158.957 35.4601C155.851 32.1653 151.835 29.6988 147.089 28.0606C148.624 20.9616 148.643 14.3106 146.893 8.46334C138.776 -18.7605 85.054 30.2878 50.7699 9.05848C36.3969 0.161793 20.9249 11.3716 8.39381 29.3981C10.1129 35.3927 13.2871 40.9638 17.7445 45.3385C12.0653 44.9336 6.47823 43.2647 1.50506 40.4914C-11.904 64.537 -20.0084 94.6384 -15.9501 108.247C-13.3162 117.076 -7.01068 123.01 1.83663 126.065C0.30171 133.164 33.4662 184.124 39.5772 184.071C55.8229 183.93 60.8744 147.053 71.721 194.31L47.5588 341.757H82.5551V189.696C92.2927 174.671 102.351 184.721 125.533 173.026C196.636 137.158 166.324 97.6237 157.103 86.0056V86.0056Z" fill="#3A6351"/>
<path d="M228.718 332.863C229.728 332.926 230.287 331.671 229.522 330.94L229.446 330.637C229.456 330.613 229.466 330.589 229.477 330.565C230.499 328.129 233.963 328.146 234.977 330.585C235.876 332.75 237.021 334.919 237.303 337.209C237.43 338.219 237.373 339.249 237.149 340.24C239.256 335.639 240.366 330.615 240.366 325.562C240.366 324.292 240.296 323.023 240.154 321.756C240.037 320.72 239.876 319.691 239.667 318.671C238.539 313.157 236.096 307.905 232.573 303.519C230.879 302.593 229.466 301.147 228.613 299.413C228.307 298.788 228.066 298.115 227.953 297.43C228.145 297.455 228.679 294.521 228.534 294.341C228.803 293.934 229.284 293.732 229.577 293.334C231.036 291.357 233.046 291.702 234.096 294.389C236.338 295.52 236.36 297.395 234.984 299.198C234.109 300.346 233.988 301.899 233.221 303.127C233.3 303.228 233.382 303.326 233.461 303.427C234.909 305.284 236.163 307.28 237.219 309.377C236.92 307.046 237.361 304.239 238.112 302.429C238.968 300.367 240.571 298.63 241.983 296.848C243.679 294.707 247.156 295.641 247.455 298.355C247.458 298.382 247.46 298.408 247.463 298.434C247.254 298.552 247.048 298.678 246.847 298.811C245.703 299.567 246.098 301.34 247.455 301.55L247.485 301.554C247.409 302.309 247.28 303.058 247.09 303.793C248.901 310.793 244.991 313.342 239.408 313.457C239.285 313.52 239.165 313.583 239.041 313.643C239.607 315.235 240.059 316.868 240.394 318.522C240.694 319.985 240.903 321.463 241.02 322.947C241.165 324.82 241.152 326.702 240.994 328.571L241.004 328.505C241.405 326.446 242.524 324.523 244.148 323.19C246.568 321.204 249.987 320.472 252.597 318.875C253.854 318.107 255.464 319.1 255.245 320.556L255.234 320.626C254.845 320.784 254.466 320.967 254.099 321.172C253.89 321.29 253.684 321.416 253.484 321.548C252.339 322.305 252.735 324.078 254.091 324.287L254.122 324.292C254.144 324.295 254.163 324.299 254.185 324.302C253.518 325.884 252.589 327.352 251.426 328.619C250.294 334.729 245.43 335.309 240.227 333.529H240.223C239.655 336.005 238.823 338.424 237.755 340.73H228.939C228.907 340.632 228.879 340.531 228.85 340.433C229.665 340.483 230.487 340.436 231.29 340.288C230.636 339.485 229.981 338.677 229.327 337.875C229.312 337.859 229.299 337.843 229.286 337.828C228.954 337.417 228.619 337.01 228.288 336.599L228.287 336.599C228.267 335.338 228.418 334.082 228.717 332.863L228.718 332.863V332.863Z" fill="#3A6351"/>
<path d="M279.793 330.02C281.169 330.106 281.93 328.398 280.889 327.402L280.785 326.99C280.799 326.957 280.812 326.924 280.826 326.891C282.218 323.575 286.934 323.598 288.314 326.919C289.539 329.867 291.098 332.819 291.482 335.936C291.654 337.312 291.576 338.713 291.271 340.063C294.14 333.799 295.65 326.959 295.65 320.08C295.65 318.352 295.556 316.623 295.362 314.9C295.203 313.489 294.984 312.088 294.7 310.699C293.164 303.192 289.838 296.043 285.041 290.071C282.735 288.811 280.812 286.842 279.651 284.482C279.233 283.631 278.906 282.715 278.752 281.782C279.014 281.816 279.741 277.822 279.543 277.577C279.909 277.023 280.563 276.747 280.963 276.206C282.949 273.514 285.686 273.984 287.115 277.642C290.167 279.181 290.197 281.734 288.324 284.19C287.132 285.752 286.969 287.865 285.923 289.538C286.031 289.675 286.143 289.809 286.25 289.946C288.223 292.474 289.928 295.192 291.366 298.046C290.96 294.874 291.56 291.052 292.583 288.588C293.747 285.781 295.93 283.416 297.852 280.989C300.161 278.074 304.895 279.347 305.302 283.042C305.305 283.078 305.309 283.113 305.313 283.149C305.028 283.31 304.748 283.481 304.475 283.662C302.916 284.692 303.455 287.106 305.301 287.39L305.343 287.397C305.24 288.424 305.063 289.443 304.805 290.445C307.271 299.974 301.948 303.445 294.347 303.601C294.179 303.687 294.016 303.773 293.848 303.855C294.618 306.021 295.233 308.244 295.689 310.497C296.098 312.488 296.382 314.5 296.541 316.52C296.739 319.07 296.722 321.632 296.507 324.177L296.519 324.087C297.066 321.284 298.589 318.666 300.8 316.851C304.094 314.147 308.748 313.151 312.302 310.978C314.013 309.931 316.205 311.283 315.907 313.265C315.902 313.297 315.897 313.329 315.892 313.36C315.363 313.575 314.847 313.825 314.348 314.104C314.062 314.265 313.782 314.436 313.509 314.617C311.951 315.647 312.489 318.061 314.336 318.345L314.378 318.352C314.408 318.356 314.434 318.36 314.464 318.365C313.556 320.519 312.291 322.518 310.708 324.242C309.166 332.561 302.544 333.35 295.461 330.927H295.457C294.682 334.298 293.551 337.591 292.097 340.73H280.094C280.051 340.596 280.012 340.459 279.973 340.326C281.083 340.394 282.202 340.33 283.295 340.128C282.404 339.036 281.514 337.935 280.623 336.843C280.602 336.822 280.584 336.8 280.567 336.779C280.115 336.22 279.659 335.665 279.208 335.106L279.207 335.106C279.179 333.39 279.385 331.68 279.793 330.02L279.793 330.02H279.793Z" fill="#3A6351"/>
<path d="M347.121 332.863C348.131 332.926 348.69 331.671 347.925 330.94L347.849 330.637C347.859 330.613 347.869 330.589 347.879 330.565C348.902 328.129 352.366 328.146 353.38 330.585C354.279 332.75 355.424 334.919 355.706 337.209C355.833 338.219 355.776 339.249 355.552 340.24C357.659 335.639 358.769 330.615 358.769 325.562C358.769 324.292 358.699 323.023 358.557 321.756C358.44 320.72 358.279 319.691 358.07 318.671C356.942 313.157 354.499 307.905 350.976 303.519C349.282 302.593 347.869 301.147 347.016 299.413C346.71 298.788 346.469 298.115 346.356 297.43C346.548 297.455 347.082 294.521 346.937 294.341C347.206 293.934 347.686 293.732 347.98 293.334C349.439 291.357 351.449 291.702 352.499 294.389C354.741 295.52 354.762 297.395 353.387 299.198C352.512 300.346 352.391 301.899 351.623 303.127C351.703 303.228 351.785 303.326 351.864 303.427C353.312 305.284 354.565 307.28 355.622 309.377C355.323 307.046 355.764 304.239 356.515 302.429C357.371 300.367 358.974 298.63 360.386 296.848C362.082 294.707 365.559 295.641 365.858 298.355C365.861 298.382 365.863 298.408 365.866 298.434C365.656 298.552 365.451 298.678 365.25 298.811C364.106 299.567 364.501 301.34 365.858 301.55L365.888 301.554C365.812 302.309 365.683 303.058 365.493 303.793C367.304 310.793 363.394 313.342 357.811 313.457C357.688 313.52 357.568 313.583 357.444 313.643C358.01 315.235 358.462 316.868 358.797 318.522C359.097 319.985 359.306 321.463 359.423 322.947C359.568 324.82 359.555 326.702 359.397 328.571L359.407 328.505C359.808 326.446 360.927 324.523 362.551 323.19C364.971 321.204 368.39 320.472 371 318.875C372.257 318.107 373.867 319.1 373.648 320.556L373.637 320.626C373.248 320.784 372.869 320.967 372.502 321.172C372.293 321.29 372.087 321.416 371.887 321.548C370.742 322.305 371.138 324.078 372.494 324.287L372.525 324.292C372.547 324.295 372.566 324.299 372.588 324.302C371.921 325.884 370.992 327.352 369.829 328.619C368.696 334.729 363.832 335.309 358.629 333.529H358.626C358.058 336.005 357.226 338.424 356.158 340.73H347.342C347.31 340.632 347.282 340.531 347.253 340.433C348.068 340.483 348.89 340.436 349.693 340.288C349.039 339.485 348.384 338.677 347.73 337.875C347.714 337.859 347.702 337.843 347.689 337.828C347.357 337.417 347.022 337.01 346.691 336.599L346.69 336.599C346.67 335.338 346.821 334.082 347.12 332.863L347.121 332.863V332.863Z" fill="#3A6351"/>
<path d="M128.23 329.762C129.639 329.85 130.418 328.1 129.352 327.081L129.246 326.659C129.26 326.626 129.274 326.592 129.288 326.558C130.713 323.162 135.543 323.186 136.956 326.587C138.21 329.605 139.807 332.629 140.2 335.821C140.376 337.229 140.297 338.665 139.984 340.047C142.923 333.632 144.469 326.627 144.469 319.583C144.469 317.813 144.372 316.043 144.174 314.277C144.011 312.833 143.786 311.398 143.496 309.976C141.923 302.288 138.517 294.966 133.605 288.851C131.243 287.561 129.274 285.544 128.084 283.127C127.657 282.255 127.322 281.318 127.163 280.362C127.432 280.397 128.177 276.307 127.974 276.056C128.349 275.488 129.019 275.206 129.428 274.652C131.462 271.895 134.265 272.377 135.728 276.122C138.854 277.699 138.884 280.313 136.966 282.828C135.746 284.428 135.578 286.592 134.508 288.305C134.618 288.446 134.733 288.582 134.843 288.723C136.863 291.312 138.609 294.095 140.082 297.018C139.666 293.769 140.28 289.855 141.328 287.332C142.52 284.457 144.756 282.036 146.724 279.551C149.088 276.565 153.936 277.868 154.353 281.652C154.357 281.689 154.361 281.726 154.365 281.762C154.072 281.927 153.786 282.102 153.506 282.287C151.91 283.342 152.462 285.814 154.353 286.106L154.395 286.112C154.29 287.165 154.109 288.208 153.845 289.234C156.37 298.993 150.918 302.547 143.134 302.707C142.963 302.795 142.795 302.883 142.623 302.966C143.412 305.185 144.042 307.462 144.509 309.769C144.927 311.807 145.218 313.868 145.381 315.937C145.584 318.548 145.566 321.172 145.346 323.779L145.359 323.686C145.919 320.816 147.478 318.134 149.743 316.276C153.117 313.507 157.883 312.487 161.522 310.261C163.274 309.189 165.519 310.574 165.213 312.604C165.208 312.636 165.203 312.669 165.198 312.701C164.656 312.921 164.128 313.177 163.617 313.463C163.324 313.628 163.038 313.803 162.758 313.988C161.162 315.042 161.714 317.515 163.605 317.806L163.648 317.813C163.678 317.817 163.705 317.822 163.736 317.826C162.806 320.032 161.511 322.079 159.889 323.845C158.311 332.364 151.529 333.172 144.275 330.691H144.271C143.478 334.143 142.319 337.516 140.83 340.73H128.538C128.494 340.593 128.454 340.452 128.415 340.316C129.551 340.386 130.697 340.32 131.816 340.113C130.904 338.995 129.992 337.868 129.08 336.75C129.058 336.728 129.04 336.706 129.023 336.683C128.56 336.111 128.093 335.543 127.63 334.971L127.63 334.97C127.601 333.213 127.812 331.462 128.23 329.762L128.23 329.762V329.762Z" fill="#3A6351"/>
<path d="M61.8772 332.863C62.888 332.926 63.4466 331.671 62.6819 330.94L62.6058 330.637C62.6158 330.613 62.6259 330.589 62.6361 330.565C63.6583 328.129 67.1226 328.146 68.1361 330.585C69.0357 332.75 70.181 334.919 70.463 337.209C70.5894 338.219 70.5325 339.249 70.3081 340.24C72.4159 335.639 73.5251 330.615 73.5251 325.562C73.5251 324.292 73.4556 323.023 73.3134 321.756C73.1965 320.72 73.0353 319.691 72.8267 318.671C71.6986 313.157 69.2558 307.905 65.7323 303.519C64.0384 302.593 62.6259 301.147 61.7727 299.413C61.4661 298.788 61.2259 298.115 61.1122 297.43C61.3049 297.455 61.839 294.521 61.6936 294.341C61.9623 293.934 62.4431 293.732 62.7365 293.334C64.1956 291.357 66.206 291.702 67.2555 294.389C69.4974 295.52 69.5191 297.395 68.1435 299.198C67.2683 300.346 67.148 301.899 66.3801 303.127C66.4591 303.228 66.5413 303.326 66.6203 303.427C68.069 305.284 69.3221 307.28 70.3784 309.377C70.0798 307.046 70.5206 304.239 71.272 302.429C72.1273 300.367 73.7305 298.63 75.1423 296.848C76.8381 294.707 80.3155 295.641 80.6143 298.355C80.6172 298.382 80.62 298.408 80.6228 298.434C80.4131 298.552 80.2076 298.678 80.0069 298.811C78.8623 299.567 79.2579 301.34 80.6142 301.55L80.6449 301.554C80.569 302.309 80.4395 303.058 80.2499 303.793C82.061 310.793 78.1509 313.342 72.5676 313.457C72.4444 313.52 72.3243 313.583 72.201 313.643C72.7667 315.235 73.2186 316.868 73.5536 318.522C73.8538 319.985 74.0624 321.463 74.1793 322.947C74.3247 324.82 74.312 326.702 74.154 328.571L74.1635 328.505C74.5648 326.446 75.6835 324.523 77.3078 323.19C79.7275 321.204 83.1461 320.472 85.7566 318.875C87.0132 318.107 88.6235 319.1 88.4041 320.556L88.3935 320.626C88.0048 320.784 87.6256 320.967 87.259 321.172C87.0493 321.29 86.8439 321.416 86.6432 321.548C85.4985 322.305 85.8941 324.078 87.2504 324.287L87.2811 324.292C87.3033 324.295 87.3222 324.299 87.3443 324.302C86.6775 325.884 85.7485 327.352 84.5855 328.619C83.4531 334.729 78.5891 335.309 73.3861 333.529H73.3829C72.8141 336.005 71.983 338.424 70.9149 340.73H62.0982C62.0665 340.632 62.0381 340.531 62.0096 340.433C62.825 340.483 63.6466 340.436 64.4493 340.288C63.7951 339.485 63.141 338.677 62.4868 337.875C62.471 337.859 62.4584 337.843 62.4458 337.828C62.114 337.417 61.779 337.01 61.4472 336.599L61.447 336.599C61.4262 335.338 61.5774 334.082 61.8769 332.863L61.8772 332.863V332.863Z" fill="#3A6351"/>
<path d="M97.8407 187.326C97.8407 187.326 82.2321 186.593 85.6706 190.928C87.9082 193.749 98.3395 209.638 104.257 212.819C107.204 214.402 110.875 213.123 112.204 210.054L123.232 184.585L115.997 181.962L107.242 202.114L97.8407 187.326V187.326Z" fill="#A0616A"/>
<path d="M119.754 185.805C122.726 185.805 125.136 183.397 125.136 180.427C125.136 177.457 122.726 175.049 119.754 175.049C116.782 175.049 114.372 177.457 114.372 180.427C114.372 183.397 116.782 185.805 119.754 185.805Z" fill="#A0616A"/>
<path d="M125.954 210.086L105.011 207.987L105.096 207.703C109.317 193.622 112.765 181.339 112.188 173.638C112.172 173.418 112.279 173.211 112.467 173.095C112.658 172.978 112.895 172.977 113.087 173.092L135.229 186.486L133.564 194.013L125.954 210.086Z" fill="#E6E6E6"/>
<path d="M102.591 223.555L107.414 239.275L85.4667 241.646L93.295 221.6L102.591 223.555Z" fill="#A0616A"/>
<path d="M107.963 211.39C107.44 215.126 107.317 218.656 107.973 220.622C108.147 221.144 110.758 224.965 110.909 225.511C112.256 230.393 106.505 231.379 106.505 231.379L84.4426 238.698C83.1721 239.12 82.1027 237.649 82.9144 236.585C84.724 234.214 86.377 230.787 86.2592 226.249C86.0757 219.178 82.944 207.931 81.213 202.212C80.5006 199.859 80.6724 197.33 81.6925 195.093L84.1554 189.691L87.7368 181.843L88.8915 176.128L99.1661 176.617L100.433 181.267L109.994 195.852C110.38 196.443 110.635 197.103 110.747 197.783C110.899 198.634 110.825 199.524 110.527 200.36C109.534 203.142 108.521 207.381 107.963 211.39H107.963Z" fill="#F9A826"/>
<path d="M79.4139 169.965C83.5189 175.08 76.2386 183.314 80.7007 188.12C79.8445 188.462 78.9296 188.594 78.0097 188.55C77.9657 188.394 77.9168 188.237 77.8678 188.086C77.4715 186.854 76.9431 185.666 76.2826 184.551C76.4098 185.763 76.312 187.005 75.9891 188.184C75.2992 187.973 74.6338 187.67 74.0173 187.299C73.939 187.255 73.8705 187.211 73.7922 187.157C71.7764 183.397 70.9985 178.972 71.708 174.767C70.3478 176.728 69.0365 178.786 68.3124 181.05C65.8612 177.177 64.1586 172.762 64.2662 168.205C64.3738 163.135 67.1039 157.933 71.7422 155.869C73.6552 155.018 75.9254 154.637 77.2611 153.024C77.9804 152.163 78.3228 151.058 78.8415 150.061C79.3601 149.063 80.1674 148.095 81.2829 147.934C81.9483 147.841 82.6578 148.207 83.0247 148.735C81.2193 150.711 81.3221 153.918 81.9092 156.612C82.5355 159.507 84.4289 163.096 82.4963 165.34C81.3074 166.724 75.4851 165.076 79.4139 169.965L79.4139 169.965Z" fill="#2F2E41"/>
<path d="M103.302 165.6C103.037 164.673 104.864 170.34 103.982 170.442C99.9676 170.902 94.4566 173.298 91.6604 174.416C91.5345 174.401 91.4086 174.387 91.2864 174.368C90.9864 174.336 90.6938 174.288 90.405 174.233C83.8942 173.002 81.3905 163.008 81.3905 162.916C81.3905 162.467 82.4696 150.126 84.1695 149.944C84.6102 149.896 85.0583 149.871 85.5139 149.871H89.7321C90.6284 149.681 91.5172 149.549 92.3801 149.487H92.3875C104.547 148.101 110.418 153.44 106.95 160.307C106.946 160.314 106.939 160.322 106.935 160.329C106.753 160.599 106.594 160.855 106.453 161.1C106.316 161.33 106.202 161.549 106.102 161.757C105.328 163.365 107.317 165.387 105.998 165.765C104.243 166.267 110.613 182.769 103.668 182.769C107.046 183.729 104.033 168.157 103.302 165.6H103.302Z" fill="#2F2E41"/>
<path d="M95.7212 175.283C101.237 175.283 105.708 170.815 105.708 165.303C105.708 159.79 101.237 155.322 95.7212 155.322C90.2054 155.322 85.7339 159.79 85.7339 165.303C85.7339 170.815 90.2054 175.283 95.7212 175.283Z" fill="#A0616A"/>
<path d="M106.95 160.852C106.784 160.94 106.622 161.018 106.456 161.101C106.28 161.184 106.104 161.267 105.932 161.345C104.817 161.849 103.77 162.206 102.811 162.367C102.542 161.526 102.18 160.715 101.73 159.952C101.818 160.798 101.744 161.663 101.514 162.485C100.179 162.46 99.0581 161.957 98.2117 160.852C98.1676 159.712 97.9132 158.578 97.4533 157.527C97.5414 158.69 97.2185 159.879 96.5726 160.852L96.7439 174.537C93.319 176.811 100.717 184.477 99.6795 186.272C99.381 186.238 89.2091 173.506 88.9205 173.452C82.4083 172.22 78.274 161.502 78.8024 160.896C78.8024 159.111 79.2183 157.429 79.962 155.923C80.9258 153.967 82.4377 152.324 84.3116 151.195C85.4124 150.662 86.5769 150.227 87.7854 149.894C87.8147 149.885 87.8392 149.88 87.8685 149.87C88.2355 149.772 88.6122 149.679 88.9841 149.606C89.7522 149.445 90.5302 149.322 91.3228 149.249C91.3815 149.244 91.4353 149.244 91.4892 149.244C91.8121 149.244 92.1154 149.332 92.3796 149.488H92.3894C92.5802 149.606 92.7515 149.753 92.8836 149.933C93.1135 150.227 93.2456 150.589 93.2456 150.99H96.9494C97.0864 150.99 97.2234 150.99 97.3604 150.999C102.522 151.205 106.666 155.258 106.935 160.328C106.945 160.504 106.95 160.676 106.95 160.852H106.95Z" fill="#2F2E41"/>
<path d="M91.6927 151.085C91.6927 154.717 88.7469 157.661 85.113 157.661C81.4792 157.661 78.5333 154.717 78.5333 151.085C78.5333 147.454 81.4792 144.51 85.113 144.51C88.7469 144.51 91.6927 147.454 91.6927 151.085Z" fill="#2F2E41"/>
<path d="M398.622 297.794V278.64C401.205 277.58 403.026 275.045 403.026 272.082C403.026 269.119 401.205 266.583 398.622 265.523V257.413C398.622 256.468 397.856 255.702 396.91 255.702C395.964 255.702 395.197 256.468 395.197 257.413V264.992C326.326 267.448 258.02 269.779 221.996 264.992V257.413C221.996 256.468 221.23 255.702 220.284 255.702C219.338 255.702 218.572 256.468 218.572 257.413V264.992H46.3492V257.413C46.3492 256.468 45.5825 255.702 44.6367 255.702C43.691 255.702 42.9243 256.468 42.9243 257.413V265.344C40.0849 266.271 38.0316 268.935 38.0316 272.082C38.0316 275.229 40.0849 277.893 42.9243 278.819V297.615C40.0849 298.541 38.0316 301.205 38.0316 304.352C38.0316 307.499 40.0849 310.163 42.9243 311.09V339.067C42.9243 340.012 43.691 340.779 44.6367 340.779C45.5825 340.779 46.3492 340.012 46.3492 339.067V311.442H218.572V339.067C218.572 340.012 219.338 340.779 220.284 340.779C221.23 340.779 221.996 340.012 221.996 339.067V311.442H395.197V339.067C395.197 340.012 395.964 340.779 396.91 340.779C397.856 340.779 398.622 340.012 398.622 339.067V310.911C401.205 309.851 403.026 307.315 403.026 304.352C403.026 301.389 401.205 298.853 398.622 297.794V297.794ZM46.3492 279.171C113.353 273.731 178.914 269.108 218.572 279.171C214.908 285.257 214.84 291.288 218.572 297.262C172.868 302.654 111.704 300.923 46.3492 297.262C48.4046 291.895 48.0254 285.742 46.3492 279.171ZM221.996 297.262V279.171H395.197C387.946 285.041 386.844 291.047 395.197 297.262C361.678 308.705 287.068 300.73 221.996 297.262Z" fill="#E6E6E6"/>
<path d="M125.709 217.596C125.354 217.596 124.994 217.561 124.632 217.488L104.144 213.328C102.839 213.063 101.74 212.233 101.127 211.052C100.514 209.871 100.47 208.495 101.006 207.277L108.929 189.267C109.363 188.279 110.381 187.65 111.458 187.716L129.858 188.741C130.357 188.763 130.641 188.457 130.753 188.156C130.865 187.855 130.846 187.427 130.457 187.128L112.755 173.548C112.634 173.454 112.607 173.287 112.694 173.16C112.781 173.033 112.945 172.996 113.077 173.074L135.767 186.311C137.437 187.287 138.212 189.259 137.652 191.109L130.778 213.82C130.086 216.108 128.01 217.596 125.709 217.596V217.596ZM112.83 173.496L112.831 173.497L112.83 173.496Z" fill="#3F3D56"/>
<path d="M102.126 196.051C102.126 196.051 91.4176 184.678 90.8726 190.183C90.518 193.766 86.9605 212.433 89.0008 218.831C90.0169 222.017 93.5452 223.649 96.6355 222.366L122.283 211.724L118.907 204.811L98.5933 213.212L102.126 196.051Z" fill="#A0616A"/>
<path d="M122.675 211.697C125.648 211.697 128.057 209.289 128.057 206.319C128.057 203.348 125.648 200.94 122.675 200.94C119.703 200.94 117.293 203.348 117.293 206.319C117.293 209.289 119.703 211.697 122.675 211.697Z" fill="#A0616A"/>
<path d="M23.5967 341.418C23.5967 341.741 23.856 342 24.1789 342H407.418C407.741 342 408 341.741 408 341.418C408 341.095 407.741 340.836 407.418 340.836H24.1789C23.856 340.836 23.5967 341.095 23.5967 341.418Z" fill="#CCCCCC"/>
<path d="M95.6904 325.416L99.627 328.329L112.742 314.541L106.932 310.242L95.6904 325.416Z" fill="#A0616A"/>
<path d="M100.674 329.652L102.65 326.985L101.569 326.283L97.1713 323.415L96.152 322.754L88.7892 331.134L88.3945 331.583L91.1896 333.651L91.6317 333.242L93.639 331.381L93.0858 334.318L92.9631 334.964L100.373 340.447C100.816 340.774 101.347 340.899 101.855 340.832C102.402 340.768 102.919 340.487 103.271 340.012C104.666 338.783 100.841 331.068 100.674 329.652V329.652Z" fill="#2F2E41"/>
<path d="M143.689 284.185L142.696 285.324L139.81 288.629L108.951 323.789L98.6768 316.944C106.397 302.236 111.364 293.196 119.701 286.898C122.01 285.153 124.584 283.617 127.544 282.229C127.544 282.229 118.991 279.109 109.01 275.271C108.134 274.934 107.244 274.592 106.349 274.239C98.0946 271.037 89.3122 267.502 83.7884 264.905C80.4271 263.326 78.6266 260.798 77.8976 257.894C75.7986 249.616 82.3353 238.253 85.9558 236.948L107.484 236.268L110.14 252.648L110.419 254.359C110.419 254.359 118.306 258.168 126.585 261.977C127.827 262.544 129.075 263.116 130.308 263.673C132.265 264.553 134.173 265.404 135.944 266.172C135.985 266.189 136.025 266.207 136.066 266.224C141.199 268.44 144.394 273.629 144.022 279.204L143.689 284.185V284.185Z" fill="#2F2E41"/>
</g>
<defs>
<clipPath id="clip0_17_2">
<rect width="425" height="342" fill="white" transform="translate(-17)"/>
</clipPath>
</defs>
</svg>
